<?xml version="1.0" encoding="UTF-8" standalone="no"?>
<!-- Created with Inkscape (http://www.inkscape.org/) -->

<svg
   xmlns:dc="http://purl.org/dc/elements/1.1/"
   xmlns:cc="http://creativecommons.org/ns#"
   xmlns:rdf="http://www.w3.org/1999/02/22-rdf-syntax-ns#"
   xmlns:svg="http://www.w3.org/2000/svg"
   xmlns="http://www.w3.org/2000/svg"
   xmlns:sodipodi="http://sodipodi.sourceforge.net/DTD/sodipodi-0.dtd"
   xmlns:inkscape="http://www.inkscape.org/namespaces/inkscape"
   width="132.29167mm"
   height="154.99696mm"
   viewBox="0 0 132.29167 154.99696"
   version="1.1"
   id="svg8"
   inkscape:version="0.92.4 (5da689c313, 2019-01-14)"
   sodipodi:docname="mobile.svg">
  <defs
     id="defs2">
    <linearGradient
       gradientUnits="userSpaceOnUse"
       gradientTransform="scale(1.1264398,0.88775274)"
       id="a"
       x1="341.5715"
       x2="669.36536"
       y1="534.95471"
       y2="307.01495">
      <stop
         offset="0%"
         stop-color="#9975D0"
         id="stop41" />
      <stop
         offset="100%"
         stop-color="#4A3FDB"
         id="stop43" />
    </linearGradient>
    <linearGradient
       gradientUnits="userSpaceOnUse"
       gradientTransform="matrix(0.20791702,0,0,0.17326419,68.912194,169.71368)"
       id="a-7"
       x1="9.0915918"
       x2="28.983652"
       y1="21.13401"
       y2="5.6683326">
      <stop
         offset="0%"
         stop-color="#9975D0"
         id="stop145" />
      <stop
         offset="100%"
         stop-color="#4A3FDB"
         id="stop147" />
    </linearGradient>
  </defs>
  <sodipodi:namedview
     id="base"
     pagecolor="#ffffff"
     bordercolor="#666666"
     borderopacity="1.0"
     inkscape:pageopacity="0.0"
     inkscape:pageshadow="2"
     inkscape:zoom="0.35"
     inkscape:cx="338.30448"
     inkscape:cy="33.857882"
     inkscape:document-units="mm"
     inkscape:current-layer="layer1"
     showgrid="false"
     inkscape:window-width="1366"
     inkscape:window-height="705"
     inkscape:window-x="-8"
     inkscape:window-y="-8"
     inkscape:window-maximized="1"
     fit-margin-top="0"
     fit-margin-left="0"
     fit-margin-right="0"
     fit-margin-bottom="0" />
  <metadata
     id="metadata5">
    <rdf:RDF>
      <cc:Work
         rdf:about="">
        <dc:format>image/svg+xml</dc:format>
        <dc:type
           rdf:resource="http://purl.org/dc/dcmitype/StillImage" />
        <dc:title></dc:title>
      </cc:Work>
    </rdf:RDF>
  </metadata>
  <g
     inkscape:label="Vrstva 1"
     inkscape:groupmode="layer"
     id="layer1"
     transform="translate(-16.323606,-32.940909)">
    <g
       id="g64"
       transform="matrix(0.1898014,0,0,0.1898014,16.32363,33.696851)"
       style="fill:none;fill-rule:evenodd">
      <path
         id="path48"
         transform="matrix(0,1,1,0,97,-97)"
         d="m 233.996,231.082 c -62.714,60.37 48.746,169.37 176.07,259.677 127.324,90.307 187.825,151.88 269.763,73.005 81.938,-78.874 114.518,-247.228 0,-332.682 -114.518,-85.453 -383.12,-60.369 -445.833,0 z"
         inkscape:connector-curvature="0"
         style="fill:url(#a)" />
      <path
         id="path50"
         d="M 14.885,304.531 C -36.988,254.698 55.205,164.721 160.519,90.176 265.833,15.63 315.877,-35.197 383.651,29.912 c 67.774,65.108 94.722,204.08 0,274.62 -94.722,70.539 -316.893,49.832 -368.766,0 z"
         inkscape:connector-curvature="0"
         style="fill:#f4f4fc" />
      <g
         id="g60"
         style="stroke:#d3629d;stroke-width:4">
        <path
           id="path52"
           d="M 344,45.087 364.087,25 384.175,45.087 404.262,25 424.35,45.087 444.437,25"
           inkscape:connector-curvature="0" />
        <path
           id="path54"
           d="M 344,63.087 364.087,43 384.175,63.087 404.262,43 424.35,63.087 444.437,43"
           inkscape:connector-curvature="0" />
        <path
           id="path56"
           d="M 344,81.087 364.087,61 384.175,81.087 404.262,61 424.35,81.087 444.437,61"
           inkscape:connector-curvature="0" />
        <path
           id="path58"
           d="M 344,99.087 364.087,79 384.175,99.087 404.262,79 424.35,99.087 444.437,79"
           inkscape:connector-curvature="0" />
      </g>
      <path
         id="path62"
         d="m 667,640 a 3,3 0 1 1 0,6 3,3 0 0 1 0,-6 z m -22,0 a 3,3 0 1 1 0,6 3,3 0 0 1 0,-6 z m -22,0 a 3,3 0 1 1 0,6 3,3 0 0 1 0,-6 z m -22,0 a 3,3 0 1 1 0,6 3,3 0 0 1 0,-6 z m -22,0 a 3,3 0 1 1 0,6 3,3 0 0 1 0,-6 z m -22,0 a 3,3 0 1 1 0,6 3,3 0 0 1 0,-6 z m -22,0 a 3,3 0 1 1 0,6 3,3 0 0 1 0,-6 z m -22,0 a 3,3 0 1 1 0,6 3,3 0 0 1 0,-6 z m -22,0 a 3,3 0 1 1 0,6 3,3 0 0 1 0,-6 z m 0,-22 a 3,3 0 1 1 0,6 3,3 0 0 1 0,-6 z m 176,0 a 3,3 0 1 1 0,6 3,3 0 0 1 0,-6 z m -22,0 a 3,3 0 1 1 0,6 3,3 0 0 1 0,-6 z m -22,0 a 3,3 0 1 1 0,6 3,3 0 0 1 0,-6 z m -22,0 a 3,3 0 1 1 0,6 3,3 0 0 1 0,-6 z m -22,0 a 3,3 0 1 1 0,6 3,3 0 0 1 0,-6 z m -22,0 a 3,3 0 1 1 0,6 3,3 0 0 1 0,-6 z m -22,0 a 3,3 0 1 1 0,6 3,3 0 0 1 0,-6 z m -22,0 a 3,3 0 1 1 0,6 3,3 0 0 1 0,-6 z m 0,-22 a 3,3 0 1 1 0,6 3,3 0 0 1 0,-6 z m 22,0 a 3,3 0 1 1 0,6 3,3 0 0 1 0,-6 z m 22,0 a 3,3 0 1 1 0,6 3,3 0 0 1 0,-6 z m 22,0 a 3,3 0 1 1 0,6 3,3 0 0 1 0,-6 z m 22,0 a 3,3 0 1 1 0,6 3,3 0 0 1 0,-6 z m 22,0 a 3,3 0 1 1 0,6 3,3 0 0 1 0,-6 z m 22,0 a 3,3 0 1 1 0,6 3,3 0 0 1 0,-6 z m 22,0 a 3,3 0 1 1 0,6 3,3 0 0 1 0,-6 z m -176,0 a 3,3 0 1 1 0,6 3,3 0 0 1 0,-6 z m 22,-22 a 3,3 0 1 1 0,6 3,3 0 0 1 0,-6 z m 22,0 a 3,3 0 1 1 0,6 3,3 0 0 1 0,-6 z m 22,0 a 3,3 0 1 1 0,6 3,3 0 0 1 0,-6 z m 22,0 a 3,3 0 1 1 0,6 3,3 0 0 1 0,-6 z m 22,0 a 3,3 0 1 1 0,6 3,3 0 0 1 0,-6 z m 22,0 a 3,3 0 1 1 0,6 3,3 0 0 1 0,-6 z m 22,0 a 3,3 0 1 1 0,6 3,3 0 0 1 0,-6 z m 22,0 a 3,3 0 1 1 0,6 3,3 0 0 1 0,-6 z m -176,0 a 3,3 0 1 1 0,6 3,3 0 0 1 0,-6 z"
         inkscape:connector-curvature="0"
         style="fill:#cf6bcb" />
    </g>
  </g>
</svg>
